<?xml version="1.0" standalone="no"?>
<!DOCTYPE svg PUBLIC "-//W3C//DTD SVG 20010904//EN"
 "http://www.w3.org/TR/2001/REC-SVG-20010904/DTD/svg10.dtd">
<svg version="1.0" xmlns="http://www.w3.org/2000/svg"
 width="549.000000pt" height="549.000000pt" viewBox="0 0 549.000000 549.000000"
 preserveAspectRatio="xMidYMid meet">
<metadata>
Created by potrace 1.14, written by Peter Selinger 2001-2017
</metadata>
<g transform="translate(0.000000,549.000000) scale(0.100000,-0.100000)"
fill="#000000" stroke="none">
<path d="M2675 5083 c-269 -216 -497 -399 -505 -406 -8 -7 -49 -39 -90 -72
-41 -33 -84 -67 -95 -77 -11 -9 -150 -121 -310 -249 -159 -128 -335 -269 -390
-313 -55 -45 -106 -86 -115 -93 -16 -12 -90 -72 -125 -101 -11 -10 -155 -125
-320 -257 -165 -132 -302 -242 -305 -245 -3 -3 -33 -28 -67 -54 -65 -50 -65
-52 -27 -96 18 -20 143 -171 207 -250 77 -95 258 -315 287 -350 21 -25 80 -97
131 -160 185 -225 389 -475 448 -545 9 -11 54 -67 101 -125 47 -58 90 -110 97
-117 6 -7 67 -81 135 -165 68 -83 140 -172 162 -197 21 -25 45 -55 55 -66 65
-82 147 -182 156 -191 5 -7 24 -29 41 -50 34 -43 265 -325 319 -389 19 -23 60
-73 92 -112 222 -274 318 -391 320 -389 1 1 -4 30 -12 66 -7 36 -16 79 -18 95
-3 17 -15 86 -26 155 -12 69 -28 172 -36 230 -9 58 -18 121 -21 140 -3 19 -7
53 -10 75 -2 22 -6 57 -9 78 -7 52 -13 102 -20 172 -3 33 -8 71 -10 85 -3 23
-6 53 -21 228 -3 37 -7 85 -9 107 -2 22 -6 85 -10 140 -3 55 -8 127 -10 160
-11 143 -17 363 -17 680 0 305 4 452 17 655 17 262 22 325 39 465 2 17 7 61
11 98 3 37 8 76 9 85 3 15 7 41 22 152 4 29 31 191 50 305 3 17 19 93 35 170
17 77 32 150 35 163 21 105 112 419 172 592 52 152 61 177 96 264 20 49 35 92
34 96 -2 4 -223 -170 -493 -387z"/>
<path d="M4760 4379 c-8 -5 -145 -54 -305 -110 -289 -100 -461 -160 -585 -205
-97 -34 -314 -110 -612 -215 l-268 -94 -10 -50 c-5 -27 -12 -67 -16 -89 -3
-21 -8 -48 -10 -60 -5 -29 -22 -124 -29 -163 -10 -63 -14 -88 -24 -163 -11
-81 -17 -125 -36 -280 -2 -19 -7 -66 -11 -105 -3 -38 -8 -81 -10 -95 -2 -14
-6 -68 -10 -120 -3 -52 -7 -106 -9 -119 -24 -146 -24 -989 0 -1181 2 -19 6
-68 10 -108 3 -41 7 -88 10 -105 2 -18 7 -50 9 -72 9 -80 18 -142 32 -225 8
-47 17 -101 20 -120 3 -19 14 -71 24 -115 l18 -80 2 90 c1 50 3 101 4 115 2
14 6 59 10 100 4 41 9 82 11 90 2 8 7 35 10 60 3 25 7 54 9 65 2 11 7 38 11
60 26 158 116 498 179 680 261 753 672 1473 1265 2215 63 80 118 147 121 150
3 3 46 52 95 110 50 58 98 113 107 122 19 19 11 30 -12 17z"/>
<path d="M3797 2612 c-31 -6 -216 -339 -331 -594 -76 -169 -173 -449 -230
-665 -43 -162 -97 -423 -111 -538 -4 -27 -8 -57 -10 -65 -2 -8 -7 -46 -11 -85
-3 -38 -8 -77 -9 -87 -4 -20 -16 -215 -19 -303 -3 -74 -1 -73 44 10 18 33 46
85 63 115 245 448 620 969 959 1333 109 117 314 320 393 389 27 23 56 50 65
58 78 74 370 296 492 374 43 28 75 52 73 55 -6 5 -1341 8 -1368 3z"/>
</g>
</svg>
